<?xml version="1.0" standalone="no"?>
<!DOCTYPE svg PUBLIC "-//W3C//DTD SVG 20010904//EN"
 "http://www.w3.org/TR/2001/REC-SVG-20010904/DTD/svg10.dtd">
<svg version="1.0" xmlns="http://www.w3.org/2000/svg"
 width="370.000000pt" height="370.000000pt" viewBox="0 0 370.000000 370.000000"
 preserveAspectRatio="xMidYMid meet">
<metadata>
Created by potrace 1.14, written by Peter Selinger 2001-2017
</metadata>
<g transform="translate(0.000000,370.000000) scale(0.100000,-0.100000)"
fill="#000000" stroke="none">
<path d="M1237 3693 c-2 -4 -3 -27 -2 -50 l1 -43 -51 0 -51 0 1 -47 0 -48 50
-5 50 -5 0 -47 0 -48 -101 0 -101 0 2 -50 2 -50 -52 0 -51 0 1 -50 1 -50 -51
0 -51 0 1 -100 1 -100 -51 0 -50 0 0 -247 0 -248 50 -5 50 -5 0 -97 1 -98 -51
0 -50 0 0 -197 0 -198 50 -5 50 -5 0 -45 0 -45 50 -5 50 -5 0 -45 0 -45 50 -5
50 -5 0 -45 0 -45 50 -5 50 -5 0 -45 0 -45 50 -5 50 -5 0 -45 0 -45 50 -5 50
-5 0 -197 0 -198 -351 0 -351 0 2 -50 2 -50 -52 0 -51 0 0 -47 1 -48 -50 -5
-51 -5 1 -48 1 -47 -51 0 -51 0 1 -100 1 -100 -51 0 -50 0 0 -150 0 -150 -50
0 -50 0 0 -98 0 -97 1700 -3 1701 -2 -1 97 0 98 -50 5 -50 5 0 95 0 95 -50 5
-50 5 0 95 0 95 -50 5 -50 5 0 45 0 45 -50 5 -50 5 0 45 0 45 -50 5 -50 5 0
45 0 45 -100 5 -100 5 0 45 0 45 -200 5 -200 5 0 45 0 45 100 5 100 5 0 45 0
45 50 5 50 5 -1 48 0 47 51 0 51 0 -1 50 -1 50 51 0 51 0 0 48 -1 47 50 5 50
5 0 95 0 95 50 5 50 5 0 295 0 295 50 5 50 5 0 98 -1 97 51 0 50 0 0 148 0
147 -50 5 -50 5 0 145 0 145 -50 5 -50 5 0 95 0 95 -50 5 -50 5 0 45 0 45 -50
5 -50 5 0 45 0 45 -100 5 -100 5 0 45 0 45 -150 5 -150 5 0 48 1 47 -451 -2
-450 -3 0 -45 0 -45 -50 0 -50 0 0 45 0 45 -97 3 c-53 1 -98 -1 -101 -5z"/>
</g>
</svg>
